<svg width="24" height="24" viewBox="0 0 24 24" fill="none" xmlns="http://www.w3.org/2000/svg">
<path d="M6.5 20C4.98 20 3.68333 19.4767 2.61 18.43C1.53667 17.3767 1 16.0933 1 14.58C1 13.28 1.39 12.12 2.17 11.1C2.95667 10.08 3.98333 9.43 5.25 9.15C5.67 7.61667 6.50333 6.37667 7.75 5.43C9.00333 4.47667 10.42 4 12 4C13.9533 4 15.6067 4.68 16.96 6.04C18.32 7.39333 19 9.04667 19 11C20.1533 11.1333 21.1067 11.6333 21.86 12.5C22.62 13.3533 23 14.3533 23 15.5C23 16.7533 22.5633 17.8167 21.69 18.69C20.8167 19.5633 19.7533 20 18.5 20H6.5Z" fill="#D4DBFB"/>
<path d="M13.7986 16.9002C13.7632 16.8538 13.7321 16.6981 13.6698 16.3867C13.6278 16.1766 13.6068 16.0715 13.5692 15.9804C13.4664 15.7314 13.2686 15.5336 13.0196 15.4308C12.9285 15.3932 12.8234 15.3722 12.6133 15.3302C12.3019 15.2679 12.1462 15.2368 12.0998 15.2014C11.9667 15.1001 11.9667 14.8999 12.0998 14.7986C12.1462 14.7632 12.3019 14.7321 12.6133 14.6698C12.8234 14.6278 12.9285 14.6068 13.0196 14.5692C13.2686 14.4664 13.4664 14.2686 13.5692 14.0196C13.6068 13.9285 13.6278 13.8234 13.6698 13.6133C13.7321 13.3019 13.7632 13.1462 13.7986 13.0998C13.8999 12.9667 14.1001 12.9667 14.2014 13.0998C14.2368 13.1462 14.2679 13.3019 14.3302 13.6133C14.3722 13.8234 14.3932 13.9285 14.4308 14.0196C14.5336 14.2686 14.7314 14.4664 14.9804 14.5692C15.0715 14.6068 15.1766 14.6278 15.3867 14.6698C15.6981 14.7321 15.8538 14.7632 15.9002 14.7986C16.0333 14.8999 16.0333 15.1001 15.9002 15.2014C15.8538 15.2368 15.6981 15.2679 15.3867 15.3302C15.1766 15.3722 15.0715 15.3932 14.9804 15.4308C14.7314 15.5336 14.5336 15.7314 14.4308 15.9804C14.3932 16.0715 14.3722 16.1766 14.3302 16.3867C14.2679 16.6981 14.2368 16.8538 14.2014 16.9002C14.1001 17.0333 13.8999 17.0333 13.7986 16.9002Z" fill="#576CC1"/>
<path d="M16.0469 10.7755C15.9673 10.671 15.8972 10.3207 15.7571 9.62014C15.6625 9.1473 15.6153 8.91086 15.5306 8.7058C15.2993 8.14562 14.8544 7.70068 14.2942 7.46941C14.0891 7.38475 13.8527 7.33746 13.3799 7.24289C12.6793 7.10278 12.329 7.03272 12.2245 6.95311C11.9252 6.72517 11.9252 6.27483 12.2245 6.04689C12.329 5.96728 12.6793 5.89722 13.3798 5.75711C13.8527 5.66254 14.0891 5.61525 14.2942 5.53059C14.8544 5.29932 15.2993 4.85438 15.5306 4.2942C15.6153 4.08914 15.6625 3.85272 15.7571 3.37988C15.8972 2.67931 15.9673 2.32901 16.0469 2.22447C16.2748 1.92518 16.7252 1.92518 16.9531 2.22447C17.0327 2.32901 17.1028 2.67928 17.2429 3.37984C17.3375 3.85269 17.3847 4.08914 17.4694 4.2942C17.7007 4.85438 18.1456 5.29932 18.7058 5.53059C18.9109 5.61525 19.1473 5.66254 19.6201 5.75711C20.3207 5.89722 20.671 5.96728 20.7755 6.04689C21.0748 6.27483 21.0748 6.72517 20.7755 6.95311C20.671 7.03272 20.3207 7.10278 19.6201 7.24289C19.1473 7.33746 18.9109 7.38475 18.7058 7.46941C18.1456 7.70068 17.7007 8.14562 17.4694 8.7058C17.3847 8.91086 17.3375 9.14729 17.2429 9.62014C17.1028 10.3207 17.0327 10.671 16.9531 10.7755C16.7252 11.0748 16.2748 11.0748 16.0469 10.7755Z" fill="#37447A"/>
<path d="M8.69793 13.8504C8.64485 13.7807 8.59815 13.5471 8.50474 13.0801C8.44169 12.7649 8.41017 12.6072 8.35373 12.4705C8.19955 12.0971 7.90292 11.8005 7.52946 11.6463C7.39276 11.5898 7.23514 11.5583 6.91991 11.4953C6.45286 11.4019 6.21934 11.3551 6.14965 11.3021C5.95012 11.1501 5.95012 10.8499 6.14965 10.6979C6.21934 10.6449 6.45286 10.5982 6.91989 10.5047C7.23513 10.4417 7.39276 10.4102 7.52946 10.3537C7.90292 10.1995 8.19955 9.90292 8.35373 9.52946C8.41017 9.39276 8.44169 9.23514 8.50474 8.91992C8.59815 8.45287 8.64485 8.21934 8.69793 8.14965C8.84988 7.95012 9.15012 7.95012 9.30207 8.14965C9.35515 8.21934 9.40185 8.45286 9.49526 8.91989C9.55831 9.23513 9.58983 9.39276 9.64627 9.52946C9.80045 9.90292 10.0971 10.1995 10.4705 10.3537C10.6072 10.4102 10.7649 10.4417 11.0801 10.5047C11.5471 10.5981 11.7807 10.6449 11.8504 10.6979C12.0499 10.8499 12.0499 11.1501 11.8504 11.3021C11.7807 11.3551 11.5471 11.4019 11.0801 11.4953C10.7649 11.5583 10.6072 11.5898 10.4705 11.6463C10.0971 11.8005 9.80045 12.0971 9.64627 12.4705C9.58983 12.6072 9.55831 12.7649 9.49526 13.0801C9.40185 13.5471 9.35515 13.7807 9.30207 13.8504C9.15012 14.0499 8.84988 14.0499 8.69793 13.8504Z" fill="#4C5FA9"/>
</svg>
